<?xml version="1.0" encoding="UTF-8"?>
<svg version="1.1" xmlns="http://www.w3.org/2000/svg" width="400" height="400">
<path d="M0 0 C132 0 264 0 400 0 C400 132 400 264 400 400 C268 400 136 400 0 400 C0 268 0 136 0 0 Z " fill="#000000" transform="translate(0,0)"/>
<path d="M0 0 C6.991875 -0.0928125 6.991875 -0.0928125 14.125 -0.1875 C15.58437988 -0.21481201 17.04375977 -0.24212402 18.54736328 -0.27026367 C19.70993652 -0.27775635 20.87250977 -0.28524902 22.0703125 -0.29296875 C23.25383301 -0.3086792 24.43735352 -0.32438965 25.65673828 -0.34057617 C30.03034994 0.10496116 33.38376774 1.5258119 36.64453125 4.5 C40.50992229 9.46424803 41.42589854 12.71799659 41 19 C39.625 22.1875 39.625 22.1875 38 25 C37.608125 25.78375 37.21625 26.5675 36.8125 27.375 C36.544375 27.91125 36.27625 28.4475 36 29 C36.825 29.7425 37.65 30.485 38.5 31.25 C41.81148035 35.21245513 41.64443502 39.16328992 41.421875 44.15234375 C40.85105716 48.00536417 39.67448611 50.18094707 37 53 C32.12940883 56.36302724 29.14895103 57.12247458 23.2421875 57.09765625 C22.02901855 57.09515869 20.81584961 57.09266113 19.56591797 57.09008789 C18.01791504 57.08098389 16.46991211 57.07187988 14.875 57.0625 C9.96625 57.041875 5.0575 57.02125 0 57 C0 38.19 0 19.38 0 0 Z " fill="#FBFBFB" transform="translate(96,178)"/>
<path d="M0 0 C28 0 28 0 36 4 C39.36065034 7.52868285 40.25917122 10.24932124 40.4375 15 C40.21704697 20.23575944 38.85393845 23.94006839 35.3125 27.875 C34.879375 28.24625 34.44625 28.6175 34 29 C34.598125 29.226875 35.19625 29.45375 35.8125 29.6875 C38.80043735 31.48026241 39.64997474 32.75993937 41 36 C41.77206642 41.48818298 41.71862343 46.78041045 38.39624023 51.41455078 C34.89317512 55.39232746 30.75170572 56.83473037 25.63085938 57.31787109 C21.74421604 57.39315839 17.88646655 57.34820454 14 57.25 C9.38 57.1675 4.76 57.085 0 57 C0 38.19 0 19.38 0 0 Z " fill="#FAFAFA" transform="translate(191,178)"/>
<path d="M0 0 C4.29 0 8.58 0 13 0 C14.50452909 3.2896648 16.00379509 6.58155195 17.5 9.875 C17.92925781 10.81214844 18.35851562 11.74929687 18.80078125 12.71484375 C19.40986328 14.05869141 19.40986328 14.05869141 20.03125 15.4296875 C20.40830078 16.25710449 20.78535156 17.08452148 21.17382812 17.93701172 C22 20 22 20 22 22 C22.66 22 23.32 22 24 22 C24.37125 20.783125 24.7425 19.56625 25.125 18.3125 C27.22024496 11.97615532 30.12789535 6.01375958 33 0 C36.96 0 40.92 0 45 0 C43.73796208 4.13737528 42.18397404 7.66902299 39.99609375 11.39453125 C31.27122274 26.95016223 28.06814711 39.18786119 29 57 C25.04 57 21.08 57 17 57 C17.04382813 55.41574219 17.08765625 53.83148438 17.1328125 52.19921875 C17.23075795 37.45439567 15.06201531 27.53495119 7.24951172 15.07763672 C4.36858077 10.28734318 2.27782555 5.0951361 0 0 Z " fill="#F4F4F4" transform="translate(139,178)"/>
<path d="M0 0 C13.53 0 27.06 0 41 0 C41 3.3 41 6.6 41 10 C36.05 10 31.1 10 26 10 C26 25.51 26 41.02 26 57 C22.37 57 18.74 57 15 57 C15 41.49 15 25.98 15 10 C10.05 10 5.1 10 0 10 C0 6.7 0 3.4 0 0 Z " fill="#FCFCFC" transform="translate(262,178)"/>
<path d="M0 0 C3.63 0 7.26 0 11 0 C11 18.81 11 37.62 11 57 C7.37 57 3.74 57 0 57 C0 38.19 0 19.38 0 0 Z " fill="#F49D3B" transform="translate(241,164)"/>
<path d="M0 0 C2.3925 -0.0825 4.785 -0.165 7.25 -0.25 C7.99668945 -0.28641602 8.74337891 -0.32283203 9.51269531 -0.36035156 C12.89453473 -0.41674587 14.70186226 -0.21755997 17.45703125 1.79296875 C19.68188084 4.97534855 19.48195444 7.21321514 19 11 C17.16884793 13.61593153 16.09031634 13.96989455 13 15 C8.66328697 15.13501597 4.33988266 15.04296914 0 15 C0 10.05 0 5.1 0 0 Z " fill="#101010" transform="translate(107,211)"/>
<path d="M0 0 C13.2106731 -0.49385694 13.2106731 -0.49385694 16.921875 1.828125 C19 4 19 4 19.5625 7 C18.86057185 10.74361678 18.03870115 11.73187857 15 14 C12.26317029 14.2911521 9.96059961 14.38322418 7.25 14.25 C6.55261719 14.23195312 5.85523438 14.21390625 5.13671875 14.1953125 C3.42388461 14.14838554 1.71176176 14.07664605 0 14 C0 9.38 0 4.76 0 0 Z " fill="#060606" transform="translate(202,211)"/>
<path d="M0 0 C2.24940295 -0.08119503 4.49964871 -0.13927819 6.75 -0.1875 C8.00296875 -0.22230469 9.2559375 -0.25710937 10.546875 -0.29296875 C14.16148829 0.01370093 15.56311106 0.35751745 18 3 C18.72685006 8.81480046 18.72685006 8.81480046 16.953125 11.70703125 C13.928467 13.70935485 10.80619873 13.31472152 7.3125 13.1875 C6.2596582 13.16719727 6.2596582 13.16719727 5.18554688 13.14648438 C3.45670171 13.11120182 1.72825235 13.05739583 0 13 C0 8.71 0 4.42 0 0 Z " fill="#050505" transform="translate(107,188)"/>
<path d="M0 0 C2.24940295 -0.08119503 4.49964871 -0.13927819 6.75 -0.1875 C8.00296875 -0.22230469 9.2559375 -0.25710937 10.546875 -0.29296875 C14.15854658 0.01345135 15.53912256 0.39293182 18 3 C18.5 5.9375 18.5 5.9375 18 9 C16.421875 11.17578125 16.421875 11.17578125 14 13 C10.546875 13.390625 10.546875 13.390625 6.75 13.25 C5.48671875 13.21390625 4.2234375 13.1778125 2.921875 13.140625 C1.47554687 13.07101563 1.47554687 13.07101563 0 13 C0 8.71 0 4.42 0 0 Z " fill="#030303" transform="translate(202,188)"/>
<path d="M0 0 C0.33 0 0.66 0 1 0 C1.17687391 7.5274807 1.34283553 15.05513432 1.49477577 22.58315849 C1.56566892 26.078534 1.64035295 29.57374359 1.72363281 33.06884766 C1.81915787 37.08477753 1.89831525 41.10088358 1.9765625 45.1171875 C2.00875885 46.37554413 2.0409552 47.63390076 2.0741272 48.9303894 C2.10438492 50.67196823 2.10438492 50.67196823 2.13525391 52.44873047 C2.15746002 53.47465302 2.17966614 54.50057556 2.20254517 55.55758667 C2 58 2 58 0 60 C-2.3828125 60.1953125 -2.3828125 60.1953125 -5.125 60.125 C-6.03507813 60.10695312 -6.94515625 60.08890625 -7.8828125 60.0703125 C-8.58148438 60.04710937 -9.28015625 60.02390625 -10 60 C-10.495 58.515 -10.495 58.515 -11 57 C-7.37 57 -3.74 57 0 57 C0 38.19 0 19.38 0 0 Z " fill="#190100" transform="translate(252,164)"/>
<path d="M0 0 C0.66 0.66 1.32 1.32 2 2 C1.67 2.33 1.34 2.66 1 3 C0.90170028 4.48810333 0.87201555 5.98082214 0.87060547 7.47216797 C0.86745331 8.42340546 0.86430115 9.37464294 0.86105347 10.35470581 C0.8630777 11.39007477 0.86510193 12.42544373 0.8671875 13.4921875 C0.86623077 14.54906769 0.86527405 15.60594788 0.86428833 16.69485474 C0.86360624 18.9360561 0.86546252 21.17725943 0.86962891 23.41845703 C0.87496618 26.85323529 0.86969033 30.28788215 0.86328125 33.72265625 C0.86394223 35.89583362 0.86522382 38.06901091 0.8671875 40.2421875 C0.86516327 41.273508 0.86313904 42.30482849 0.86105347 43.36740112 C0.86420563 44.32494293 0.86735779 45.28248474 0.87060547 46.26904297 C0.87140106 47.11207977 0.87219666 47.95511658 0.87301636 48.82369995 C0.91580393 51.18146288 0.91580393 51.18146288 2 54 C1.01 54 0.02 54 -1 54 C-1.02526648 46.47030348 -1.04283141 38.9406178 -1.05493164 31.41088867 C-1.0599737 28.84708243 -1.06680714 26.28327909 -1.07543945 23.71948242 C-1.08751064 20.04344979 -1.09322942 16.36745502 -1.09765625 12.69140625 C-1.10281754 11.53725723 -1.10797882 10.38310822 -1.11329651 9.19398499 C-1.11337204 8.13296066 -1.11344757 7.07193634 -1.11352539 5.97875977 C-1.115746 5.03944107 -1.11796661 4.10012238 -1.12025452 3.13233948 C-1 1 -1 1 0 0 Z " fill="#F39B40" transform="translate(243,165)"/>
<path d="M0 0 C0.66 0 1.32 0 2 0 C2.33 0.66 2.66 1.32 3 2 C5.52733235 2.65555119 5.52733235 2.65555119 8 3 C8 2.01 8 1.02 8 0 C8.66 0 9.32 0 10 0 C10 1.32 10 2.64 10 4 C6.37 4 2.74 4 -1 4 C-0.67 2.68 -0.34 1.36 0 0 Z " fill="#140102" transform="translate(242,160)"/>
</svg>
